<svg width="80" height="80" viewBox="0 0 80 80" fill="none" xmlns="http://www.w3.org/2000/svg">
<path d="M80 40C80 50.6087 75.7857 60.7828 68.2843 68.2843C60.7828 75.7857 50.6087 80 40 80C29.3913 80 19.2172 75.7857 11.7157 68.2843C4.21427 60.7828 0 50.6087 0 40C0 29.3913 4.21427 19.2172 11.7157 11.7157C19.2172 4.21427 29.3913 0 40 0C50.6087 0 60.7828 4.21427 68.2843 11.7157C75.7857 19.2172 80 29.3913 80 40ZM40 20C39.368 20.0004 38.7432 20.1331 38.1656 20.3896C37.5881 20.6462 37.0707 21.0209 36.6467 21.4896C36.2228 21.9582 35.9017 22.5105 35.7042 23.1108C35.5067 23.7111 35.4372 24.3462 35.5 24.975L37.25 42.51C37.3088 43.1989 37.624 43.8406 38.1332 44.3082C38.6425 44.7758 39.3086 45.0353 40 45.0353C40.6914 45.0353 41.3575 44.7758 41.8668 44.3082C42.376 43.8406 42.6912 43.1989 42.75 42.51L44.5 24.975C44.5628 24.3462 44.4933 23.7111 44.2958 23.1108C44.0983 22.5105 43.7772 21.9582 43.3533 21.4896C42.9293 21.0209 42.4119 20.6462 41.8344 20.3896C41.2569 20.1331 40.632 20.0004 40 20ZM40.01 50C38.6839 50 37.4121 50.5268 36.4745 51.4645C35.5368 52.4021 35.01 53.6739 35.01 55C35.01 56.3261 35.5368 57.5979 36.4745 58.5355C37.4121 59.4732 38.6839 60 40.01 60C41.3361 60 42.6078 59.4732 43.5455 58.5355C44.4832 57.5979 45.01 56.3261 45.01 55C45.01 53.6739 44.4832 52.4021 43.5455 51.4645C42.6078 50.5268 41.3361 50 40.01 50Z" fill="#8871CC"/>
</svg>
