<svg width="70" height="71" viewBox="0 0 70 71" fill="none" xmlns="http://www.w3.org/2000/svg">
<path d="M61.8725 57.3306C65.4628 53.0109 67.9599 47.89 69.1525 42.4011C70.3452 36.9122 70.1982 31.2168 68.7242 25.7967C67.2502 20.3766 64.4924 15.3912 60.6841 11.2623C56.8759 7.13346 52.1292 3.98253 46.8457 2.0761C41.5621 0.169678 35.8971 -0.43616 30.3299 0.30984C24.7627 1.05584 19.4571 3.13173 14.8618 6.3619C10.2665 9.59208 6.51687 13.8815 3.92998 18.8673C1.34309 23.8531 -0.00490648 29.3887 1.34191e-05 35.0056C0.00190135 43.1711 2.87938 51.0751 8.12751 57.3306L8.07751 57.3731C8.25251 57.5831 8.45251 57.7631 8.63251 57.9706C8.85751 58.2281 9.10001 58.4706 9.33251 58.7206C10.0325 59.4806 10.7525 60.2106 11.5075 60.8956C11.7375 61.1056 11.975 61.3006 12.2075 61.5006C13.0075 62.1906 13.83 62.8456 14.6825 63.4556C14.7925 63.5306 14.8925 63.6281 15.0025 63.7056V63.6756C20.8578 67.7961 27.8428 70.0074 35.0025 70.0074C42.1623 70.0074 49.1473 67.7961 55.0025 63.6756V63.7056C55.1125 63.6281 55.21 63.5306 55.3225 63.4556C56.1725 62.8431 56.9975 62.1906 57.7975 61.5006C58.03 61.3006 58.2675 61.1031 58.4975 60.8956C59.2525 60.2081 59.9725 59.4806 60.6725 58.7206C60.905 58.4706 61.145 58.2281 61.3725 57.9706C61.55 57.7631 61.7525 57.5831 61.9275 57.3706L61.8725 57.3306ZM35 15.0056C37.2251 15.0056 39.4001 15.6654 41.2502 16.9016C43.1002 18.1378 44.5422 19.8948 45.3937 21.9505C46.2451 24.0061 46.4679 26.2681 46.0339 28.4504C45.5998 30.6327 44.5283 32.6372 42.955 34.2106C41.3816 35.7839 39.3771 36.8554 37.1948 37.2895C35.0125 37.7236 32.7505 37.5008 30.6948 36.6493C28.6392 35.7978 26.8821 34.3559 25.646 32.5058C24.4098 30.6558 23.75 28.4807 23.75 26.2556C23.75 23.272 24.9353 20.4105 27.0451 18.3007C29.1548 16.1909 32.0163 15.0056 35 15.0056ZM15.0175 57.3306C15.0609 54.0481 16.3949 50.9145 18.7309 48.608C21.0669 46.3014 24.2171 45.0073 27.5 45.0056H42.5C45.7829 45.0073 48.9331 46.3014 51.2691 48.608C53.6051 50.9145 54.9391 54.0481 54.9825 57.3306C49.4996 62.2715 42.3807 65.0058 35 65.0058C27.6194 65.0058 20.5004 62.2715 15.0175 57.3306Z" fill="#8871CC"/>
</svg>
